<svg xmlns="http://www.w3.org/2000/svg" viewBox="0 0 64 64"><path d="M32 0c-8.69 0-9.78 0-13.19.19A23.59 23.59 0 0011 1.68a15.67 15.67 0 00-5.63 3.69A15.67 15.67 0 001.68 11a23.59 23.59 0 00-1.49 7.81C0 22.22 0 23.31 0 32s0 9.78.19 13.19A23.59 23.59 0 001.68 53a15.67 15.67 0 003.69 5.67A15.67 15.67 0 0011 62.32a23.59 23.59 0 007.77 1.49C22.22 64 23.31 64 32 64s9.78 0 13.19-.19A23.59 23.59 0 0053 62.32 16.34 16.34 0 0062.32 53a23.59 23.59 0 001.49-7.77C64 41.78 64 40.69 64 32s0-9.78-.19-13.19A23.59 23.59 0 0062.32 11a15.67 15.67 0 00-3.69-5.67A15.67 15.67 0 0053 1.68 23.59 23.59 0 0045.19.19C41.78 0 40.69 0 32 0zm0 5.77c8.54 0 9.56 0 12.93.18a17.81 17.81 0 015.94 1.1 9.87 9.87 0 013.68 2.4A9.87 9.87 0 0157 13.13a17.81 17.81 0 011.1 5.94c.15 3.37.18 4.39.18 12.93s0 9.56-.18 12.93a17.81 17.81 0 01-1.1 5.94A10.66 10.66 0 0150.87 57a17.81 17.81 0 01-5.94 1.1c-3.37.15-4.39.18-12.93.18s-9.56 0-12.93-.18a17.81 17.81 0 01-5.94-1.1 9.87 9.87 0 01-3.68-2.4 9.87 9.87 0 01-2.4-3.68A17.81 17.81 0 016 44.93c-.2-3.37-.23-4.39-.23-12.93s0-9.56.18-12.93a17.81 17.81 0 011.1-5.94 9.87 9.87 0 012.4-3.68 9.87 9.87 0 013.68-2.4A17.81 17.81 0 0119.07 6c3.37-.15 4.39-.18 12.93-.18m0 36.9A10.67 10.67 0 1142.67 32 10.67 10.67 0 0132 42.67zm0-27.1A16.43 16.43 0 1048.43 32 16.42 16.42 0 0032 15.57zm20.92-.65a3.84 3.84 0 11-3.84-3.84 3.84 3.84 0 013.84 3.84z"/></svg>